<?xml version="1.0" encoding="UTF-8" standalone="no"?>
<svg
   xmlns:dc="http://purl.org/dc/elements/1.1/"
   xmlns:cc="http://creativecommons.org/ns#"
   xmlns:rdf="http://www.w3.org/1999/02/22-rdf-syntax-ns#"
   xmlns:svg="http://www.w3.org/2000/svg"
   xmlns="http://www.w3.org/2000/svg"
   xmlns:sodipodi="http://sodipodi.sourceforge.net/DTD/sodipodi-0.dtd"
   xmlns:inkscape="http://www.inkscape.org/namespaces/inkscape"
   inkscape:version="1.0 (4035a4fb49, 2020-05-01)"
   sodipodi:docname="socketservice.svg"
   id="svg22"
   xml:space="preserve"
   enable-background="new 0 0 100 100"
   viewBox="0 0 100 100"
   y="0px"
   x="0px"
   version="1.1"><metadata
   id="metadata28"><rdf:RDF><cc:Work
       rdf:about=""><dc:format>image/svg+xml</dc:format><dc:type
         rdf:resource="http://purl.org/dc/dcmitype/StillImage" /></cc:Work></rdf:RDF></metadata><defs
   id="defs26" /><sodipodi:namedview
   inkscape:current-layer="svg22"
   inkscape:window-maximized="1"
   inkscape:window-y="-8"
   inkscape:window-x="-8"
   inkscape:cy="35.965123"
   inkscape:cx="57.72136"
   inkscape:zoom="5.183384"
   showgrid="false"
   id="namedview24"
   inkscape:window-height="1017"
   inkscape:window-width="1920"
   inkscape:pageshadow="2"
   inkscape:pageopacity="0"
   guidetolerance="10"
   gridtolerance="10"
   objecttolerance="10"
   borderopacity="1"
   bordercolor="#666666"
   pagecolor="#ffffff" />
    
<path
   d="M 49.947266 0 A 50 50 0 0 0 0 50 A 50 50 0 0 0 1.8359375 63.421875 C 2.4136369 62.016839 3.7928565 61.027344 5.40625 61.027344 C 6.75025 61.027344 7.9310469 61.713859 8.6230469 62.755859 L 25.435547 57.105469 C 25.331547 56.640469 25.271484 56.159109 25.271484 55.662109 C 25.271484 54.367109 25.650875 53.163531 26.296875 52.144531 L 14.431641 40.277344 C 13.740641 40.601344 12.977063 40.796875 12.164062 40.796875 C 9.1940625 40.796875 6.7851562 38.388969 6.7851562 35.417969 C 6.7851563 32.446969 9.1930625 30.037109 12.164062 30.037109 C 15.135062 30.037109 17.542969 32.446969 17.542969 35.417969 C 17.542969 36.568969 17.174594 37.630859 16.558594 38.505859 L 28.224609 50.171875 C 29.265609 49.481875 30.512469 49.078125 31.855469 49.078125 C 33.436469 49.078125 34.886484 49.636453 36.021484 50.564453 L 60.607422 26.035156 C 60.236422 25.211156 60.023438 24.300891 60.023438 23.337891 C 60.023438 23.005891 60.055516 22.680328 60.103516 22.361328 L 43.921875 12.572266 C 43.303875 12.993266 42.556953 13.240234 41.751953 13.240234 C 39.618953 13.240234 37.888672 11.512906 37.888672 9.3789062 C 37.888672 7.2449062 39.619953 5.5175781 41.751953 5.5175781 C 43.884953 5.5175781 45.613281 7.2449062 45.613281 9.3789062 C 45.613281 9.6969062 45.563234 10.002828 45.490234 10.298828 L 61.097656 19.738281 C 61.995656 18.367281 63.390344 17.355172 65.027344 16.951172 L 64.732422 8.6972656 C 62.787422 8.2362656 61.335938 6.5000625 61.335938 4.4140625 C 61.335938 3.3209611 61.748121 2.3333926 62.40625 1.5625 A 50 50 0 0 0 50 0 A 50 50 0 0 0 49.947266 0 z M 70.146484 4.2402344 C 70.148796 4.2985974 70.164038 4.353186 70.164062 4.4121094 C 70.164062 6.2361094 69.058422 7.7996562 67.482422 8.4726562 L 67.78125 16.863281 C 69.83625 17.234281 71.557609 18.556328 72.474609 20.361328 L 87.785156 17.253906 A 50 50 0 0 0 70.146484 4.2402344 z M 89.75 19.669922 L 73.175781 23.03125 C 73.180781 23.13325 73.191406 23.232937 73.191406 23.335938 C 73.191406 24.618938 72.818594 25.813172 72.183594 26.826172 L 84.833984 39.478516 C 85.471984 39.117516 86.201281 38.894531 86.988281 38.894531 C 89.425281 38.894531 91.400391 40.870594 91.400391 43.308594 C 91.400391 45.747594 89.425281 47.722656 86.988281 47.722656 C 84.551281 47.722656 82.574219 45.747594 82.574219 43.308594 C 82.574219 42.667594 82.718844 42.061719 82.964844 41.511719 L 70.261719 28.808594 C 69.215719 29.508594 67.959469 29.917969 66.605469 29.917969 C 64.930469 29.917969 63.404187 29.286859 62.242188 28.255859 L 37.742188 52.726562 C 38.184188 53.610562 38.4375 54.604156 38.4375 55.660156 C 38.4375 55.684156 38.435547 55.708422 38.435547 55.732422 L 61.183594 60.384766 C 62.122594 59.241766 63.529047 58.498047 65.123047 58.498047 C 67.953047 58.498047 70.248047 60.793047 70.248047 63.623047 C 70.248047 65.071047 69.643734 66.372687 68.677734 67.304688 L 72.431641 76.642578 C 72.509641 76.639578 72.582109 76.619141 72.662109 76.619141 C 75.176109 76.619141 77.214844 78.656875 77.214844 81.171875 C 77.214844 81.489875 77.179187 81.798656 77.117188 82.097656 L 83.958984 86.697266 A 50 50 0 0 0 100 50 A 50 50 0 0 0 89.75 19.669922 z M 37.820312 58.4375 C 37.004312 60.1855 35.446828 61.512578 33.548828 62.017578 L 33.544922 72.310547 C 35.086922 72.997547 36.164062 74.537937 36.164062 76.335938 C 36.164062 78.772938 34.189953 80.748047 31.751953 80.748047 C 29.313953 80.748047 27.337891 78.773938 27.337891 76.335938 C 27.337891 74.229938 28.814109 72.474156 30.787109 72.035156 L 30.789062 62.150391 C 29.085062 61.872391 27.605422 60.943047 26.607422 59.623047 L 9.2089844 65.46875 C 8.9269844 67.32375 7.34025 68.748047 5.40625 68.748047 C 4.6794349 68.748047 4.0063581 68.536277 3.4257812 68.1875 A 50 50 0 0 0 50 100 A 50 50 0 0 0 81.8125 88.574219 L 75.75 84.498047 C 74.937 85.252047 73.859062 85.722656 72.664062 85.722656 C 71.901062 85.722656 71.191594 85.518547 70.558594 85.185547 L 63.277344 92.822266 C 63.734344 93.736266 63.838797 94.822422 63.466797 95.857422 C 62.744797 97.863422 60.533391 98.905594 58.525391 98.183594 C 56.519391 97.461594 55.478219 95.250141 56.199219 93.244141 C 56.920219 91.238141 59.134625 90.194969 61.140625 90.917969 C 61.175625 90.929969 61.203328 90.951844 61.236328 90.964844 L 68.621094 83.220703 C 68.306094 82.603703 68.113281 81.913828 68.113281 81.173828 C 68.113281 79.725828 68.801563 78.455141 69.851562 77.619141 L 66.212891 68.628906 C 65.861891 68.704906 65.499 68.75 65.125 68.75 C 62.295 68.75 60 66.455 60 63.625 C 60 63.383 60.039266 63.151969 60.072266 62.917969 L 37.820312 58.4375 z "
   style="fill:#ff6600;fill-opacity:1;fill-rule:evenodd"
   id="path30" /></svg>
